<svg xmlns="http://www.w3.org/2000/svg" xmlns:xlink="http://www.w3.org/1999/xlink" width="500" zoomAndPan="magnify" viewBox="0 0 375 374.999991" height="500" preserveAspectRatio="xMidYMid meet" version="1.2"><defs><clipPath id="bb42b48143"><path d="M 75 37.5 L 254 37.5 L 254 292 L 75 292 Z M 75 37.5 "/></clipPath><clipPath id="8383f5ac37"><path d="M 121 83 L 300 83 L 300 337.5 L 121 337.5 Z M 121 83 "/></clipPath></defs><g id="173946b2d8"><g clip-rule="nonzero" clip-path="url(#bb42b48143)"><path style=" stroke:none;fill-rule:evenodd;fill:#ffffff;fill-opacity:1;" d="M 103.597656 66.097656 L 103.597656 290.140625 C 102.585938 289.890625 101.585938 289.601562 100.597656 289.273438 C 99.613281 288.941406 98.640625 288.570312 97.683594 288.15625 C 96.730469 287.746094 95.792969 287.292969 94.875 286.804688 C 93.957031 286.316406 93.058594 285.789062 92.183594 285.222656 C 91.308594 284.660156 90.460938 284.058594 89.636719 283.425781 C 88.808594 282.789062 88.011719 282.121094 87.242188 281.421875 C 86.476562 280.71875 85.734375 279.988281 85.027344 279.222656 C 84.320312 278.460938 83.644531 277.671875 83.003906 276.851562 C 82.359375 276.03125 81.753906 275.1875 81.179688 274.320312 C 80.609375 273.449219 80.074219 272.558594 79.574219 271.644531 C 79.078125 270.730469 78.617188 269.796875 78.195312 268.84375 C 77.777344 267.890625 77.398438 266.925781 77.058594 265.941406 C 76.71875 264.957031 76.417969 263.960938 76.160156 262.953125 C 75.90625 261.941406 75.691406 260.925781 75.519531 259.898438 C 75.34375 258.871094 75.214844 257.839844 75.128906 256.804688 C 75.042969 255.765625 75 254.726562 75 253.6875 L 75 37.5 Z M 225.074219 262.609375 L 253.664062 291.207031 L 167.890625 291.207031 L 167.890625 262.609375 Z M 225.074219 262.609375 "/></g><g clip-rule="nonzero" clip-path="url(#8383f5ac37)"><path style=" stroke:none;fill-rule:evenodd;fill:#ffffff;fill-opacity:1;" d="M 121.445312 83.945312 L 150.035156 112.542969 L 150.035156 300.128906 C 150.035156 300.71875 150.089844 301.300781 150.207031 301.875 C 150.320312 302.453125 150.492188 303.011719 150.714844 303.554688 C 150.941406 304.097656 151.214844 304.613281 151.542969 305.101562 C 151.867188 305.589844 152.238281 306.039062 152.65625 306.457031 C 153.070312 306.871094 153.519531 307.242188 154.011719 307.566406 C 154.5 307.894531 155.011719 308.171875 155.554688 308.394531 C 156.097656 308.621094 156.660156 308.789062 157.234375 308.902344 C 157.808594 309.019531 158.390625 309.074219 158.980469 309.074219 L 271.519531 309.074219 L 300.109375 337.671875 L 158.945312 337.671875 C 157.714844 337.671875 156.488281 337.609375 155.265625 337.488281 C 154.042969 337.367188 152.832031 337.1875 151.625 336.949219 C 150.417969 336.707031 149.230469 336.410156 148.054688 336.050781 C 146.878906 335.695312 145.722656 335.28125 144.585938 334.808594 C 143.453125 334.339844 142.34375 333.8125 141.257812 333.234375 C 140.175781 332.652344 139.121094 332.023438 138.101562 331.339844 C 137.078125 330.65625 136.09375 329.925781 135.144531 329.144531 C 134.195312 328.363281 133.285156 327.539062 132.417969 326.667969 C 131.550781 325.800781 130.726562 324.890625 129.945312 323.941406 C 129.167969 322.988281 128.4375 322.003906 127.753906 320.980469 C 127.074219 319.960938 126.441406 318.90625 125.863281 317.820312 C 125.285156 316.738281 124.761719 315.628906 124.292969 314.492188 C 123.820312 313.355469 123.410156 312.199219 123.054688 311.023438 C 122.695312 309.847656 122.398438 308.65625 122.160156 307.453125 C 121.921875 306.246094 121.742188 305.03125 121.621094 303.808594 C 121.503906 302.585938 121.445312 301.359375 121.445312 300.128906 Z M 121.445312 83.945312 "/></g></g></svg>