<svg xmlns="http://www.w3.org/2000/svg" xmlns:xlink="http://www.w3.org/1999/xlink" width="500" zoomAndPan="magnify" viewBox="0 0 375 374.999991" height="500" preserveAspectRatio="xMidYMid meet" version="1.2"><defs><clipPath id="150dc277e2"><path d="M 79.179688 74 L 295.929688 74 L 295.929688 305 L 79.179688 305 Z M 79.179688 74 "/></clipPath></defs><g id="51f5c17c7f"><g clip-rule="nonzero" clip-path="url(#150dc277e2)"><path style=" stroke:none;fill-rule:nonzero;fill:#ffffff;fill-opacity:1;" d="M 193.199219 290.960938 L 193.203125 290.960938 Z M 86.085938 150.878906 C 86.082031 151.222656 86.078125 151.566406 86.078125 151.902344 L 86.078125 224.933594 C 86.078125 252.621094 98.339844 275.757812 119.714844 288.414062 C 130.070312 294.542969 142.035156 297.78125 154.324219 297.78125 C 166.929688 297.78125 179.796875 294.382812 191.53125 287.949219 L 246.136719 257.300781 C 246.144531 257.296875 246.152344 257.292969 246.160156 257.285156 C 272.542969 242.765625 288.933594 215.972656 288.933594 187.367188 C 288.933594 160.695312 274.570312 136.886719 250.515625 123.695312 C 250.515625 123.691406 250.515625 123.691406 250.511719 123.691406 L 191.539062 91.214844 C 167.269531 77.902344 139.984375 77.519531 118.5625 90.203125 C 114.972656 92.328125 111.609375 94.792969 108.519531 97.5625 L 216.59375 155.578125 C 216.613281 155.585938 216.632812 155.597656 216.652344 155.605469 L 229.183594 162.507812 C 234.867188 165.628906 239.066406 169.742188 241.65625 174.730469 C 243.636719 178.550781 244.640625 182.804688 244.640625 187.367188 C 244.640625 197.144531 239.421875 210.460938 224.765625 218.503906 L 170.175781 249.144531 C 170.164062 249.152344 170.152344 249.160156 170.140625 249.164062 C 160.429688 254.457031 150.011719 254.878906 142.277344 250.300781 C 134.601562 245.753906 130.371094 236.746094 130.371094 224.933594 L 130.371094 212.386719 C 130.371094 188.964844 117.523438 167.585938 96.84375 156.59375 Z M 154.324219 304.671875 C 140.804688 304.671875 127.621094 301.101562 116.203125 294.34375 C 92.679688 280.417969 79.191406 255.117188 79.191406 224.933594 L 79.191406 151.902344 C 79.191406 149.679688 79.273438 147.367188 79.441406 145.023438 C 79.523438 143.863281 80.1875 142.820312 81.210938 142.253906 C 82.230469 141.691406 83.464844 141.679688 84.496094 142.226562 L 100.074219 150.511719 C 111.304688 156.476562 120.699219 165.390625 127.25 176.292969 C 133.800781 187.191406 137.261719 199.671875 137.261719 212.386719 L 137.261719 224.933594 C 137.261719 234.210938 140.289062 241.117188 145.789062 244.367188 C 151.410156 247.699219 159.273438 247.230469 166.824219 243.125 L 221.40625 212.488281 C 221.414062 212.484375 221.425781 212.480469 221.433594 212.472656 C 233.464844 205.875 237.75 195.175781 237.75 187.367188 C 237.75 179.207031 233.75 172.875 225.863281 168.546875 L 213.355469 161.660156 L 101.097656 101.402344 C 100.144531 100.890625 99.488281 99.964844 99.324219 98.898438 C 99.15625 97.832031 99.496094 96.75 100.246094 95.972656 C 104.621094 91.4375 109.601562 87.5 115.050781 84.273438 C 138.589844 70.339844 168.425781 70.675781 194.859375 85.175781 L 253.835938 117.652344 C 280.128906 132.078125 295.824219 158.140625 295.824219 187.367188 C 295.824219 218.480469 278.074219 247.582031 249.496094 263.316406 L 194.886719 293.964844 C 194.878906 293.972656 194.867188 293.976562 194.859375 293.980469 C 182.109375 300.976562 168.089844 304.671875 154.324219 304.671875 "/></g></g></svg>